<svg xmlns="http://www.w3.org/2000/svg" viewBox="0 0 1024 1024" width="1024" height="1024">
  <!-- White rounded square background -->
  <rect width="1024" height="1024" rx="220" fill="#FFFFFF"/>
  <!-- Subtle red border -->
  <rect x="12" y="12" width="1000" height="1000" rx="210" fill="none" stroke="#EF4444" stroke-width="16" opacity="0.15"/>

  <!-- Red shield body -->
  <path d="M512 170 C512 170 290 235 290 235 C290 235 280 570 280 570 C280 690 385 790 512 860 C639 790 744 690 744 570 C744 570 734 235 734 235 C734 235 512 170 512 170 Z" fill="#EF4444"/>

  <!-- White M letterform inside shield -->
  <path d="M385 640 L385 390 L445 390 L512 500 L579 390 L639 390 L639 640 L592 640 L592 460 L528 565 L496 565 L432 460 L432 640 Z" fill="#FFFFFF"/>

  <!-- White keyhole circle at top -->
  <circle cx="512" cy="305" r="42" fill="#FFFFFF"/>
  <rect x="500" y="335" width="24" height="45" rx="5" fill="#FFFFFF"/>
</svg>
